<?xml version="1.0" encoding="UTF-8" standalone="no"?>
<svg width="196px" height="197px" viewBox="0 0 196 197" version="1.1" xmlns="http://www.w3.org/2000/svg" xmlns:xlink="http://www.w3.org/1999/xlink">
    <!-- Generator: Sketch 3.6.1 (26313) - http://www.bohemiancoding.com/sketch -->
    <title>LOGO</title>
    <desc>Created with Sketch.</desc>
    <defs></defs>
    <g id="Page-1" stroke="none" stroke-width="1" fill="none" fill-rule="evenodd">
        <g id="LOGO">
            <path d="M91.8037577,0.498036683 C99.8337577,-1.03196332 108.473758,0.998036683 114.873758,6.10803668 C120.543758,10.1680367 122.943758,17.7980367 129.903758,20.2280367 C136.143758,23.3280367 142.733758,19.3480367 149.203758,20.4480367 C161.503758,21.7980367 172.603758,31.5080367 174.673758,43.8680367 C176.043758,49.4180367 173.873758,54.9980367 174.573758,60.5880367 C175.013758,66.3980367 178.773758,71.5380367 183.693758,74.4580367 C196.713758,82.8180367 199.583758,102.518037 190.473758,114.768037 C186.483758,121.178037 178.043758,123.598037 175.543758,131.108037 C172.723758,137.148037 176.353758,143.508037 175.473758,149.738037 C174.513758,158.738037 169.423758,167.418037 161.603758,172.108037 C156.213758,175.418037 149.673758,176.908037 143.403758,175.938037 C137.953758,175.098037 131.923758,175.258037 127.303758,178.628037 C122.553758,181.598037 120.893758,187.438037 116.373758,190.668037 C104.543758,200.458037 85.1437577,198.588037 75.7337577,186.318037 C72.6637577,181.748037 68.6937577,177.288037 63.0937577,175.998037 C57.8237577,174.378037 52.6037577,177.298037 47.2937577,176.648037 C33.7037577,175.798037 21.3337577,164.578037 20.2437577,150.818037 C19.2737577,144.928037 22.5537577,139.078037 20.6237577,133.288037 C19.3237577,128.598037 15.9137577,124.778037 11.7837577,122.338037 C-1.32624226,113.638037 -3.82624226,93.4380367 5.94375774,81.3280367 C9.13375774,76.4980367 14.9737577,74.4180367 18.1837577,69.6380367 C21.0237577,65.7280367 22.0537577,60.5980367 20.9137577,55.8980367 C17.3837577,41.5480367 27.0237577,25.4780367 41.3137577,21.7480367 C46.8837577,19.9280367 52.7037577,21.0680367 58.3337577,21.8680367 C64.7137577,21.7080367 70.4737577,17.4780367 73.6937577,12.1280367 C77.6337577,5.79803668 84.5837577,1.81803668 91.8037577,0.498036683" id="Fill-2" fill="#A2774D"></path>
            <ellipse id="Oval-1" fill="#CDA67C" cx="97.5" cy="98.5" rx="70.5" ry="71.5"></ellipse>
            <g id="1459688527_Refresh" transform="translate(98.476991, 97.239528) rotate(26.000000) translate(-98.476991, -97.239528) translate(51.476991, 44.239528)" fill="#BB1913">
                <g id="Layer_1">
                    <g id="Group">
                        <path d="M93.8147783,52.5371179 C93.8147783,50.1532751 91.8931034,48.2323144 89.4852217,48.2323144 C87.4940887,48.2323144 85.8039409,49.5978166 85.317734,51.4262009 L85.317734,51.4262009 C85.317734,51.449345 85.2945813,51.4956332 85.2945813,51.5650655 C85.2945813,51.6113537 85.2714286,51.6576419 85.2714286,51.7039301 C85.155665,52.2362445 84.8778325,53.231441 84.8315271,53.4628821 C84.4147783,55.2218341 83.9517241,56.9344978 83.3034483,58.5777293 C82.053202,61.8641921 80.3399015,64.8729258 78.3487685,67.4882096 L77.9783251,67.9742358 L77.5847291,68.4371179 C77.3300493,68.7379913 77.0753695,69.0620087 76.7975369,69.3628821 C76.2418719,69.9414847 75.7325123,70.5432314 75.1768473,71.09869 C74.08867,72.209607 72.9078818,73.2048035 71.7502463,74.1074236 C69.38867,75.8895197 67.0039409,77.30131 64.6655172,78.3196507 C62.3502463,79.3379913 60.1507389,80.0091703 58.1596059,80.4257642 C57.673399,80.5183406 57.1871921,80.6340611 56.7241379,80.7034934 C56.2610837,80.7729258 55.8211823,80.8423581 55.3812808,80.9117904 C54.9413793,80.9580786 54.5246305,81.0043668 54.1310345,81.050655 C53.9226601,81.0737991 53.7374384,81.0969432 53.5522167,81.0969432 C53.3669951,81.0969432 53.1817734,81.1200873 52.9965517,81.1200873 C52.6492611,81.1432314 52.3019704,81.1663755 51.9778325,81.1663755 L51.1674877,81.1663755 L50.4960591,81.1663755 L50.3108374,81.1663755 L50.3108374,75.0563319 C50.3108374,72.9965066 47.9261084,71.8624454 46.3285714,73.1816594 L44.453202,74.5240175 C39.3133005,78.180786 34.4512315,82.2310044 29.9364532,86.6515284 C28.3389163,87.9707424 28.3389163,90.4240175 29.9364532,91.7200873 L30.029064,91.8126638 C34.4975369,96.1637555 39.2901478,100.167686 44.3837438,103.80131 L46.3748768,105.2131 C47.9724138,106.50917 50.3571429,105.398253 50.3571429,103.338428 L50.3571429,97.2052402 C50.426601,97.2052402 50.4960591,97.1820961 50.5655172,97.1820961 C50.7044335,97.158952 50.820197,97.158952 51.0285714,97.1358079 C51.3990148,97.0895197 51.8157635,97.0432314 52.255665,96.9969432 C52.6955665,96.950655 53.1817734,96.8812227 53.6679803,96.8117904 C54.1310345,96.719214 54.6172414,96.6497817 55.1497537,96.5572052 C55.4044335,96.510917 55.682266,96.4646288 55.9369458,96.4183406 C56.2147783,96.3720524 56.4926108,96.3026201 56.7704433,96.2331878 C57.3261084,96.0943231 57.9280788,95.9786026 58.5300493,95.8165939 C59.1320197,95.631441 59.7802956,95.4694323 60.4285714,95.2611354 C61.0768473,95.0759825 61.7482759,94.8213974 62.4428571,94.5899563 C65.1748768,93.6179039 68.1847291,92.2524017 71.217734,90.4240175 C74.2507389,88.5956332 77.2837438,86.2580786 80.1315271,83.4344978 C81.5438424,82.0227074 82.9098522,80.4951965 84.1832512,78.828821 C84.8315271,78.0187773 85.4334975,77.1393013 86.035468,76.2829694 C86.3364532,75.8432314 86.6142857,75.3803493 86.8921182,74.9406114 L87.308867,74.2694323 L87.7024631,73.5751092 C89.855665,69.8489083 91.5226601,65.7061135 92.564532,61.3781659 C93.0970443,59.2257642 93.4211823,57.0039301 93.6527094,54.7820961 C93.6990148,54.2266376 93.7684729,53.6480349 93.7916256,53.0925764 C93.8147783,52.8842795 93.8147783,52.6991266 93.8147783,52.5371179 L93.8147783,52.5371179 Z" id="XMLID_1138_"></path>
                        <path d="M4.51477833,57.7676856 C6.50591133,57.7676856 8.19605911,56.4021834 8.68226601,54.5737991 C8.70541872,54.3886463 8.72857143,54.3423581 8.72857143,54.2960699 C8.84433498,53.7637555 9.12216749,52.768559 9.16847291,52.5371179 C9.58522167,50.7781659 10.0482759,49.0655022 10.6965517,47.4222707 C11.946798,44.1358079 13.6600985,41.1270742 15.6512315,38.5117904 L16.0216749,38.0257642 L16.4152709,37.5628821 C16.6699507,37.2620087 16.9246305,36.9379913 17.2024631,36.6371179 C17.7581281,36.0585153 18.2674877,35.4567686 18.8231527,34.90131 C19.91133,33.790393 21.0921182,32.7951965 22.2497537,31.8925764 C24.61133,30.1104803 26.9960591,28.69869 29.3344828,27.6803493 C31.6497537,26.6620087 33.8492611,25.9908297 35.8403941,25.5742358 C36.326601,25.4816594 36.8128079,25.3659389 37.2758621,25.2965066 C37.7389163,25.2270742 38.1788177,25.1576419 38.6187192,25.0882096 C39.0586207,25.0419214 39.4753695,24.9956332 39.8689655,24.949345 C40.0773399,24.9262009 40.2625616,24.9030568 40.4477833,24.9030568 C40.6330049,24.9030568 40.8182266,24.8799127 41.0034483,24.8799127 C41.3507389,24.8567686 41.6980296,24.8336245 42.0221675,24.8336245 L42.8325123,24.8336245 L43.5039409,24.8336245 C43.5502463,24.8336245 43.6891626,30.9436681 43.6891626,30.9436681 C43.6891626,33.0034934 46.0738916,34.1375546 47.6714286,32.8183406 L49.5931034,31.4528384 C54.7330049,27.7960699 59.5950739,23.7458515 64.1098522,19.3253275 C65.7073892,18.0061135 65.7073892,15.5528384 64.1098522,14.2567686 C59.5487685,9.81310044 54.7561576,5.80917031 49.6625616,2.17554585 L47.6714286,0.763755459 C46.0738916,-0.53231441 43.6891626,0.57860262 43.6891626,2.63842795 L43.6891626,8.79475983 C43.6197044,8.79475983 43.5502463,8.81790393 43.4807882,8.81790393 C43.3418719,8.84104803 43.2261084,8.84104803 43.017734,8.86419214 C42.6472906,8.91048035 42.2305419,8.95676856 41.7906404,9.00305677 C41.3507389,9.04934498 40.864532,9.11877729 40.3783251,9.18820961 C39.9152709,9.28078603 39.429064,9.35021834 38.8965517,9.44279476 C38.6418719,9.48908297 38.3640394,9.53537118 38.1093596,9.58165939 C37.8315271,9.6279476 37.5536946,9.69737991 37.2758621,9.76681223 C36.720197,9.90567686 36.1182266,10.0213974 35.5162562,10.1834061 C34.9142857,10.368559 34.2660099,10.5305677 33.617734,10.7388646 C32.9694581,10.9240175 32.2980296,11.1786026 31.6034483,11.4100437 C28.8714286,12.3820961 25.8615764,13.7475983 22.8285714,15.5759825 C19.7955665,17.4043668 16.7625616,19.7419214 13.9147783,22.5655022 C12.5024631,23.9772926 11.1364532,25.5048035 9.86305419,27.171179 C9.21477833,27.9812227 8.61280788,28.8606987 8.01083744,29.7170306 C7.70985222,30.1567686 7.4320197,30.6196507 7.15418719,31.0593886 L6.73743842,31.7305677 L6.34384236,32.4248908 C4.19064039,36.1510917 2.52364532,40.2938865 1.4817734,44.6218341 C0.949261084,46.7742358 0.625123153,48.9960699 0.393596059,51.2179039 C0.34729064,51.7733624 0.277832512,52.3519651 0.254679803,52.9074236 C0.185221675,53.1157205 0.185221675,53.3008734 0.185221675,53.4628821 C0.185221675,55.8467249 2.10689655,57.7676856 4.51477833,57.7676856 Z" id="XMLID_1202_"></path>
                    </g>
                </g>
            </g>
        </g>
    </g>
</svg>